<svg width="60" height="60" viewBox="0 0 60 60" fill="none" xmlns="http://www.w3.org/2000/svg">
<rect width="60" height="60" rx="23" fill="#FFF7ED"/>
<path d="M40.9404 37.3203C40.8004 37.1853 40.6454 37.0753 40.4704 36.9803C40.2854 36.8854 40.0954 36.8004 39.9155 36.7304C39.7255 36.6554 39.5355 36.5854 39.3555 36.5204C39.1505 36.4454 38.9855 36.3704 38.8405 36.2904C38.6805 36.2054 38.5505 36.0954 38.4555 35.9704C38.3505 35.8404 38.3006 35.6754 38.3006 35.4854C38.3006 35.3604 38.3205 35.2504 38.3655 35.1505C38.4105 35.0455 38.4855 34.9555 38.5805 34.8805C38.6705 34.8105 38.7955 34.7505 38.9355 34.7155C39.0805 34.6755 39.2455 34.6555 39.4355 34.6555C39.6355 34.6555 39.8355 34.6805 40.0205 34.7255C40.1854 34.7705 40.3404 34.8255 40.4754 34.8805C40.5804 34.9205 40.6754 34.9655 40.7654 35.0105L40.9804 35.1155L40.9904 34.8805C40.9954 34.8205 41.0004 34.7505 41.0004 34.6755C41.0004 34.5955 41.0004 34.5305 40.9954 34.4705C40.9904 34.4155 40.9854 34.3655 40.9804 34.3255C40.9745 34.2936 40.9626 34.263 40.9454 34.2355L40.9204 34.1955L40.8954 34.1755L40.8854 34.1655C40.8704 34.1555 40.8404 34.1355 40.7754 34.1005C40.694 34.0625 40.6106 34.0291 40.5254 34.0005C40.4404 33.9705 40.3404 33.9405 40.2304 33.9155C40.1296 33.8917 40.0278 33.8717 39.9255 33.8555L39.8205 33.8405L39.9355 32.7856L39.9105 32.6506L39.7805 32.6306C39.7105 32.6206 39.6255 32.6156 39.5205 32.6156C39.4305 32.6156 39.1205 32.6206 39.0655 32.6256L38.9405 32.6456L38.8405 33.8655C38.6005 33.9005 38.3855 33.9605 38.1906 34.0405C37.9556 34.1405 37.7656 34.2605 37.6156 34.4105C37.4606 34.5605 37.3406 34.7355 37.2606 34.9405C37.1756 35.1455 37.1356 35.3704 37.1356 35.6204C37.1356 35.8904 37.1756 36.1354 37.2556 36.3254C37.3356 36.5204 37.4456 36.6854 37.5756 36.8154C37.7106 36.9503 37.8656 37.0653 38.0356 37.1603C38.2106 37.2553 38.3955 37.3403 38.5805 37.4153C38.7705 37.4903 38.9555 37.5553 39.1355 37.6253C39.3155 37.6903 39.4855 37.7703 39.6405 37.8553C39.7955 37.9453 39.9255 38.0503 40.0205 38.1703C40.1204 38.3003 40.1754 38.4653 40.1754 38.6602C40.1754 38.9452 40.0604 39.1802 39.8305 39.3602C39.6105 39.5302 39.2755 39.6102 38.8455 39.6102C38.5705 39.6102 38.3305 39.5802 38.1256 39.5302C37.9306 39.4752 37.7556 39.4152 37.6106 39.3502C37.4706 39.2852 37.3556 39.2302 37.2706 39.1752L37.0606 39.0502L37.0356 39.2952C37.0306 39.3702 37.0256 39.4652 37.0256 39.5802C37.0256 39.6852 37.0306 39.8302 37.0506 39.8852L37.0156 39.9402L37.1056 40.0302C37.1406 40.0652 37.1906 40.1002 37.2606 40.1352C37.3406 40.1802 37.4356 40.2202 37.5306 40.2552C37.6506 40.3002 37.7656 40.3351 37.8806 40.3601C38.0206 40.3951 38.1606 40.4201 38.3006 40.4401L38.4055 40.4551L38.2906 41.5801L38.3006 41.7201L38.4355 41.7401C38.4905 41.7501 38.5805 41.7551 38.6855 41.7551C38.6905 41.7551 39.0655 41.7551 39.1505 41.7401L39.2655 41.7201L39.3705 40.4401C39.6405 40.4101 39.8955 40.3501 40.1304 40.2602C40.4004 40.1602 40.6254 40.0252 40.8104 39.8602C40.9954 39.6952 41.1404 39.4952 41.2404 39.2702C41.3404 39.0402 41.3954 38.7802 41.3954 38.4953C41.3954 38.2303 41.3554 37.9953 41.2704 37.8103C41.1854 37.6203 41.0754 37.4553 40.9404 37.3203Z" fill="#FB923C"/>
<path d="M39.2004 30.7049C38.1855 30.7049 37.2255 30.9349 36.3606 31.3349C35.8506 31.1299 35.3256 30.9499 34.7657 30.7699C33.8857 30.4799 33.0958 30.2049 32.3008 29.815C31.7858 29.565 31.3259 29.295 30.9109 28.99C31.8158 28.0651 32.5558 26.8251 33.0208 25.4402C33.3907 24.3503 33.5757 23.2304 33.5757 22.1154C33.5757 20.7455 33.3257 19.5656 32.8308 18.6106C31.8658 16.7257 29.9459 15.6858 27.4161 15.6858C24.8862 15.6858 22.9613 16.7257 21.9964 18.6106C21.5064 19.5706 21.2564 20.7505 21.2564 22.1154C21.2564 23.2304 21.4414 24.3503 21.8114 25.4402C22.2764 26.8301 23.0213 28.0701 23.9213 28.995C23.5013 29.295 23.0413 29.57 22.5264 29.82C21.7164 30.2199 20.8915 30.4999 20.0515 30.7749L19.9965 30.7949C17.7116 31.5499 15.5568 32.2598 14.5118 35.3746C14.1669 36.5246 13.9069 37.5895 14.0319 39.9094C14.0419 40.1044 14.1669 40.2694 14.3468 40.3394C18.1216 41.7493 22.9613 42.4992 27.7561 42.4992C29.9259 42.4992 32.0808 42.3392 34.1257 42.0243C35.3706 43.4242 37.1855 44.3141 39.2004 44.3141C42.9502 44.3141 46 41.2643 46 37.5145C46 33.7547 42.9502 30.7049 39.2004 30.7049ZM22.7264 25.1252C22.3914 24.1353 22.2214 23.1204 22.2214 22.1104C22.2214 20.9005 22.4364 19.8705 22.8563 19.0456C23.8663 17.0657 25.8912 16.6507 27.4111 16.6507C28.926 16.6507 30.9509 17.0657 31.9608 19.0506C32.3858 19.8705 32.6008 20.9005 32.6008 22.1104C32.6008 23.1204 32.4308 24.1353 32.0958 25.1252C31.6108 26.5652 30.8109 27.8201 29.8409 28.66C29.056 29.34 28.211 29.7 27.4111 29.7C26.6111 29.7 25.7662 29.34 24.9812 28.66C24.0113 27.8201 23.2113 26.5652 22.7264 25.1252ZM14.9868 39.5244C14.9118 37.5795 15.1368 36.6446 15.4368 35.6546C16.3217 33.0148 18.0766 32.4348 20.3015 31.7049L20.3565 31.6849C21.2314 31.3999 22.0864 31.1049 22.9513 30.6799C23.5863 30.3699 24.1463 30.025 24.6612 29.64C25.5412 30.3099 26.4861 30.6649 27.4161 30.6649C28.346 30.6649 29.291 30.3099 30.1709 29.64C30.6809 30.03 31.2409 30.3699 31.8758 30.6799C32.7258 31.0999 33.5857 31.3949 34.4757 31.6899C34.7507 31.7799 35.0156 31.8648 35.2806 31.9598C33.5457 33.1948 32.4058 35.2147 32.4058 37.5045C32.4058 38.8394 32.7958 40.0794 33.4607 41.1293C27.2811 41.9893 20.1615 41.3793 14.9868 39.5244ZM39.2004 43.3342C35.9856 43.3342 33.3707 40.7193 33.3707 37.5045C33.3707 34.2897 35.9856 31.6749 39.2004 31.6749C42.4152 31.6749 45.0301 34.2897 45.0301 37.5045C45.0301 40.7193 42.4152 43.3342 39.2004 43.3342Z" fill="#FB923C"/>
</svg>
