<svg width="60" height="60" viewBox="0 0 60 60" fill="none" xmlns="http://www.w3.org/2000/svg">
<path opacity="0.21" d="M37 0C49.7025 0 60 10.2975 60 23V37C60 49.7025 49.7025 60 37 60H23C10.2975 60 0 49.7025 0 37V23C0 10.2975 10.2975 0 23 0H37Z" fill="#FEC53D"/>
<path d="M43.5938 30.6561H16.4062C16.0334 30.6565 15.676 30.8048 15.4124 31.0685C15.1487 31.3321 15.0004 31.6895 15 32.0623V32.9998C15 33.1241 15.0494 33.2434 15.1373 33.3313C15.2252 33.4192 15.3444 33.4686 15.4688 33.4686H44.5312C44.6556 33.4686 44.7748 33.4192 44.8627 33.3313C44.9506 33.2434 45 33.1241 45 32.9998V32.0623C44.9996 31.6895 44.8513 31.3321 44.5876 31.0685C44.324 30.8048 43.9666 30.6565 43.5938 30.6561ZM44.0625 32.5311H15.9375V32.0623C15.9376 31.9381 15.987 31.8189 16.0749 31.731C16.1628 31.6431 16.282 31.5937 16.4062 31.5936H43.5938C43.718 31.5938 43.8371 31.6432 43.925 31.7311C44.0129 31.819 44.0623 31.9381 44.0625 32.0623V32.5311ZM27.1875 36.7498H32.8125C32.9368 36.7498 33.056 36.7004 33.144 36.6125C33.2319 36.5246 33.2812 36.4053 33.2812 36.281C33.2812 36.1567 33.2319 36.0375 33.144 35.9496C33.056 35.8617 32.9368 35.8123 32.8125 35.8123H27.1875C27.0632 35.8123 26.944 35.8617 26.856 35.9496C26.7681 36.0375 26.7188 36.1567 26.7188 36.281C26.7188 36.4053 26.7681 36.5246 26.856 36.6125C26.944 36.7004 27.0632 36.7498 27.1875 36.7498ZM27.1875 38.6248H32.8125C32.9368 38.6248 33.056 38.5754 33.144 38.4875C33.2319 38.3996 33.2812 38.2803 33.2812 38.156C33.2812 38.0317 33.2319 37.9125 33.144 37.8246C33.056 37.7366 32.9368 37.6873 32.8125 37.6873H27.1875C27.0632 37.6873 26.944 37.7366 26.856 37.8246C26.7681 37.9125 26.7188 38.0317 26.7188 38.156C26.7188 38.2803 26.7681 38.3996 26.856 38.4875C26.944 38.5754 27.0632 38.6248 27.1875 38.6248ZM39.8705 24.5315C39.8705 24.5315 41.5113 25.2559 41.5186 25.2587C41.5273 25.262 42.3696 25.6009 42.4219 26.1913V29.637H43.3594C43.3594 29.637 43.3589 26.1524 43.3582 26.1419C43.2804 24.9831 42.0272 24.4516 41.8643 24.3873L40.617 23.8366C40.4086 24.1082 40.1563 24.3431 39.8705 24.5315ZM37.0952 24.8195L36.5709 27.5441C36.5563 27.6201 36.5608 27.6985 36.5839 27.7724C36.607 27.8463 36.648 27.9133 36.7034 27.9674L37.8752 29.1158C37.9634 29.2004 38.0809 29.2476 38.2031 29.2476C38.3253 29.2476 38.4428 29.2004 38.531 29.1158L39.7029 27.9674C39.7582 27.9133 39.7993 27.8463 39.8224 27.7724C39.8455 27.6985 39.8499 27.6201 39.8353 27.5441L39.311 24.8195C39.0181 24.934 38.7092 25.0021 38.3953 25.0213L38.8671 27.474L38.2031 28.1249L37.5391 27.474L38.0109 25.0213C37.6971 25.0022 37.3881 24.9339 37.0952 24.8195ZM38.2031 24.0937C38.7624 24.0931 39.2985 23.8706 39.694 23.4752C40.0894 23.0797 40.3119 22.5436 40.3125 21.9843V20.1093C40.3125 19.5499 40.0903 19.0134 39.6947 18.6178C39.2991 18.2222 38.7626 18 38.2031 18C37.6437 18 37.1072 18.2222 36.7116 18.6178C36.316 19.0134 36.0938 19.5499 36.0938 20.1093V21.9843C36.0944 22.5436 36.3168 23.0797 36.7123 23.4752C37.1077 23.8706 37.6439 24.0931 38.2031 24.0937ZM37.0312 20.1093C37.0312 19.7986 37.1547 19.5005 37.3745 19.2807C37.5943 19.061 37.8923 18.9375 38.2031 18.9375C38.5139 18.9375 38.812 19.061 39.0318 19.2807C39.2515 19.5005 39.375 19.7986 39.375 20.1093V21.9843C39.375 22.2951 39.2515 22.5932 39.0318 22.813C38.812 23.0327 38.5139 23.1562 38.2031 23.1562C37.8923 23.1562 37.5943 23.0327 37.3745 22.813C37.1547 22.5932 37.0312 22.2951 37.0312 21.9843V20.1093ZM30 24.0937C30.5593 24.0931 31.0954 23.8706 31.4909 23.4752C31.8863 23.0797 32.1088 22.5436 32.1094 21.9843V20.1093C32.1094 19.5499 31.8871 19.0134 31.4916 18.6178C31.096 18.2222 30.5594 18 30 18C29.4406 18 28.904 18.2222 28.5084 18.6178C28.1129 19.0134 27.8906 19.5499 27.8906 20.1093V21.9843C27.8912 22.5436 28.1137 23.0797 28.5091 23.4752C28.9046 23.8706 29.4407 24.0931 30 24.0937ZM28.8281 20.1093C28.8281 19.7986 28.9516 19.5005 29.1714 19.2807C29.3911 19.061 29.6892 18.9375 30 18.9375C30.3108 18.9375 30.6089 19.061 30.8286 19.2807C31.0484 19.5005 31.1719 19.7986 31.1719 20.1093V21.9843C31.1719 22.2951 31.0484 22.5932 30.8286 22.813C30.6089 23.0327 30.3108 23.1562 30 23.1562C29.6892 23.1562 29.3911 23.0327 29.1714 22.813C28.9516 22.5932 28.8281 22.2951 28.8281 21.9843V20.1093ZM21.7969 24.0937C22.3561 24.0931 22.8923 23.8706 23.2877 23.4752C23.6832 23.0797 23.9056 22.5436 23.9062 21.9843V20.1093C23.9062 19.5499 23.684 19.0134 23.2884 18.6178C22.8928 18.2222 22.3563 18 21.7969 18C21.2374 18 20.7009 18.2222 20.3053 18.6178C19.9097 19.0134 19.6875 19.5499 19.6875 20.1093V21.9843C19.6881 22.5436 19.9106 23.0797 20.306 23.4752C20.7015 23.8706 21.2376 24.0931 21.7969 24.0937ZM20.625 20.1093C20.625 19.7986 20.7485 19.5005 20.9682 19.2807C21.188 19.061 21.4861 18.9375 21.7969 18.9375C22.1077 18.9375 22.4057 19.061 22.6255 19.2807C22.8453 19.5005 22.9688 19.7986 22.9688 20.1093V21.9843C22.9688 22.2951 22.8453 22.5932 22.6255 22.813C22.4057 23.0327 22.1077 23.1562 21.7969 23.1562C21.4861 23.1562 21.188 23.0327 20.9682 22.813C20.7485 22.5932 20.625 22.2951 20.625 21.9843V20.1093ZM25.3125 37.2185C25.3125 36.9404 25.23 36.6685 25.0755 36.4373C24.921 36.206 24.7014 36.0258 24.4444 35.9193C24.1874 35.8129 23.9047 35.785 23.6319 35.8393C23.3591 35.8936 23.1085 36.0275 22.9119 36.2242C22.7152 36.4208 22.5813 36.6714 22.527 36.9442C22.4728 37.217 22.5006 37.4997 22.607 37.7567C22.7135 38.0136 22.8937 38.2332 23.125 38.3878C23.3562 38.5423 23.6281 38.6248 23.9062 38.6248C24.2791 38.6243 24.6365 38.476 24.9001 38.2124C25.1638 37.9488 25.3121 37.5913 25.3125 37.2185ZM23.4375 37.2185C23.4375 37.1258 23.465 37.0352 23.5165 36.9581C23.568 36.881 23.6412 36.8209 23.7269 36.7855C23.8125 36.75 23.9068 36.7407 23.9977 36.7588C24.0886 36.7769 24.1722 36.8215 24.2377 36.8871C24.3033 36.9526 24.3479 37.0361 24.366 37.1271C24.3841 37.218 24.3748 37.3122 24.3393 37.3979C24.3038 37.4836 24.2438 37.5568 24.1667 37.6083C24.0896 37.6598 23.999 37.6873 23.9062 37.6873C23.782 37.6871 23.6628 37.6377 23.5749 37.5498C23.4871 37.462 23.4376 37.3428 23.4375 37.2185ZM37.5 37.2185C37.5 36.9404 37.4175 36.6685 37.263 36.4373C37.1085 36.206 36.8889 36.0258 36.6319 35.9193C36.3749 35.8129 36.0922 35.785 35.8194 35.8393C35.5466 35.8936 35.296 36.0275 35.0994 36.2242C34.9027 36.4208 34.7688 36.6714 34.7145 36.9442C34.6603 37.217 34.6881 37.4997 34.7945 37.7567C34.901 38.0136 35.0812 38.2332 35.3125 38.3878C35.5437 38.5423 35.8156 38.6248 36.0938 38.6248C36.4666 38.6243 36.824 38.476 37.0876 38.2124C37.3513 37.9488 37.4996 37.5913 37.5 37.2185ZM35.625 37.2185C35.625 37.1258 35.6525 37.0352 35.704 36.9581C35.7555 36.881 35.8287 36.8209 35.9144 36.7855C36 36.75 36.0943 36.7407 36.1852 36.7588C36.2761 36.7769 36.3597 36.8215 36.4252 36.8871C36.4908 36.9526 36.5354 37.0361 36.5535 37.1271C36.5716 37.218 36.5623 37.3122 36.5268 37.3979C36.4913 37.4836 36.4313 37.5568 36.3542 37.6083C36.2771 37.6598 36.1865 37.6873 36.0938 37.6873C35.9695 37.6871 35.8504 37.6376 35.7625 37.5498C35.6746 37.4619 35.6252 37.3428 35.625 37.2185Z" fill="#FEC53D"/>
<path d="M39.7964 40.6172C39.771 40.7184 39.7123 40.8082 39.6296 40.872C39.5469 40.9358 39.4452 40.9698 39.3408 40.9687H20.6592C20.5565 40.9703 20.4561 40.9375 20.374 40.8757C20.2919 40.8138 20.2328 40.7264 20.2059 40.6272L18.8365 34.4063H17.8765L19.2926 40.8386C19.3673 41.1443 19.5427 41.4158 19.7907 41.6095C20.0386 41.8032 20.3446 41.9077 20.6592 41.9062H39.341C39.6573 41.9072 39.9646 41.8013 40.213 41.6057C40.4615 41.4101 40.6366 41.1362 40.7098 40.8286L42.1233 34.4063H41.1633L39.7964 40.6172ZM20.689 24.8198L20.1647 27.5443C20.1501 27.6203 20.1545 27.6987 20.1775 27.7726C20.2006 27.8465 20.2416 27.9135 20.2969 27.9676L21.4688 29.116C21.5569 29.2009 21.6745 29.2484 21.7969 29.2484C21.9193 29.2484 22.0369 29.2009 22.125 29.116L23.2969 27.9676C23.3521 27.9135 23.3932 27.8465 23.4162 27.7726C23.4393 27.6987 23.4437 27.6203 23.4291 27.5443L22.9048 24.8198C22.6119 24.9342 22.3029 25.0023 21.9891 25.0216L22.4609 27.4743L21.7969 28.1251L21.1329 27.4743L21.6047 25.0216C21.2908 25.0024 20.9819 24.9342 20.689 24.8198ZM17.5781 26.1915C17.6302 25.6014 18.4725 25.2623 18.4793 25.2597C18.4882 25.2564 20.1255 24.5291 20.1255 24.5291C19.8404 24.3406 19.5888 24.1057 19.3812 23.8342L18.1348 24.3878C17.9698 24.453 16.7191 24.9848 16.6418 26.1423C16.6406 26.1526 16.6406 29.6373 16.6406 29.6373H17.5781V26.1915ZM28.9341 24.8352L28.3678 27.7789C28.3532 27.8549 28.3577 27.9333 28.3807 28.0071C28.4038 28.0809 28.4448 28.1479 28.5 28.202L29.6719 29.3504C29.7602 29.4349 29.8778 29.482 30 29.482C30.1222 29.482 30.2398 29.4349 30.3281 29.3504L31.5 28.202C31.5553 28.1479 31.5963 28.0809 31.6194 28.007C31.6424 27.9331 31.6468 27.8547 31.6322 27.7787L31.0659 24.8352C30.7714 24.9455 30.4615 25.0092 30.1474 25.0239L30.664 27.7086L30 28.3595L29.336 27.7086L29.8526 25.0239C29.5385 25.0092 29.2286 24.9455 28.9341 24.8352ZM24.8437 29.7188H25.7812V26.2283C25.8333 25.6227 26.678 25.2768 26.6848 25.2744C26.6937 25.2707 28.3324 24.5315 28.3324 24.5315C28.0475 24.3436 27.7959 24.1096 27.588 23.8389L26.3355 24.4042C26.1701 24.4708 24.922 25.0101 24.8449 26.1801C24.8438 26.1904 24.8437 29.7188 24.8437 29.7188ZM31.6636 24.5341C31.6636 24.5341 33.3059 25.2707 33.3134 25.2735C33.3218 25.2768 34.1665 25.6227 34.2187 26.2286V29.7188H35.1562C35.1562 29.7188 35.156 26.1904 35.1553 26.1798C35.0777 25.0087 33.8269 24.4696 33.6637 24.404L32.4101 23.8415C32.2016 24.1123 31.9493 24.3464 31.6636 24.5341ZM35.5978 24.9442L36.5318 24.5294C36.2467 24.3408 35.9951 24.1058 35.7874 23.8342L34.953 24.205C35.2067 24.4147 35.4245 24.6644 35.5978 24.9442ZM23.4642 24.5317L24.401 24.9456C24.5743 24.6654 24.7921 24.4154 25.046 24.2055L24.2109 23.8366C24.0027 24.1083 23.7503 24.3433 23.4645 24.5317H23.4642Z" fill="#FEC53D"/>
</svg>
