<svg width="60" height="60" viewBox="0 0 60 60" fill="none" xmlns="http://www.w3.org/2000/svg">
<path opacity="0.21" d="M37 0C49.7025 0 60 10.2975 60 23V37C60 49.7025 49.7025 60 37 60H23C10.2975 60 0 49.7025 0 37V23C0 10.2975 10.2975 0 23 0H37Z" fill="#B50F0F"/>
<path d="M32.9357 29.843C37.0854 29.843 40.4609 26.5137 40.4609 22.4215C40.4609 18.3293 37.0854 15 32.9357 15C28.786 15 25.4099 18.3293 25.4099 22.4215C25.4099 26.5137 28.786 29.843 32.9357 29.843ZM32.0445 18.0592V17.8576C32.0445 17.3719 32.4432 16.9787 32.9357 16.9787C33.4277 16.9787 33.827 17.3719 33.827 17.8576V18.0604C34.8876 18.2848 35.6856 19.2164 35.6856 20.3285C35.6856 20.8137 35.2863 21.2074 34.7943 21.2074C34.3017 21.2074 33.903 20.8137 33.903 20.3285C33.903 20.0186 33.6469 19.766 33.3326 19.766H32.5335C32.2192 19.766 31.9631 20.0186 31.9631 20.3285C31.9632 20.4164 31.9841 20.503 32.0243 20.5815C32.0644 20.6599 32.1226 20.728 32.1942 20.7803L32.9357 21.3217L34.7373 22.6365C35.329 23.0684 35.6856 23.7592 35.6903 24.4858V24.494C35.6945 25.1139 35.4538 25.6987 35.0118 26.1399C34.6838 26.4674 34.2738 26.6871 33.827 26.7797V26.9854C33.827 27.4711 33.4277 27.8643 32.9357 27.8643C32.4432 27.8643 32.0445 27.4711 32.0445 26.9854V26.7827C31.6095 26.6912 31.2097 26.4803 30.8864 26.1651C30.439 25.7297 30.1906 25.1485 30.1871 24.5285C30.1841 24.0434 30.5804 23.6473 31.0724 23.6444H31.0783C31.5679 23.6444 31.9666 24.0346 31.9696 24.518C31.9699 24.5919 31.985 24.6649 32.014 24.733C32.043 24.8011 32.0854 24.8629 32.1386 24.9149C32.1919 24.9668 32.255 25.0078 32.3244 25.0357C32.3938 25.0635 32.4681 25.0775 32.543 25.077C33.0354 25.0741 32.852 25.0751 33.341 25.0723C33.6573 25.0698 33.9102 24.8167 33.9078 24.5057V24.4975C33.9066 24.3217 33.8204 24.1541 33.6767 24.0492L32.9357 23.5084L31.1336 22.1936C30.5371 21.7576 30.1805 21.0604 30.1805 20.3285C30.1805 19.2141 30.9809 18.2818 32.0445 18.0592ZM20.7421 34.066C20.5136 33.6754 20.0061 33.5395 19.6076 33.7662L15.4153 36.1528C15.0183 36.3793 14.8821 36.88 15.1113 37.272L19.3961 44.5905C19.6254 44.9819 20.1329 45.1163 20.5305 44.8903L24.7229 42.5032C25.1205 42.2771 25.2561 41.7764 25.0269 41.3844L20.7421 34.066ZM44.7638 32.6051C44.3604 32.0526 43.5797 31.9278 43.02 32.3256C41.3218 33.5321 38.061 35.8489 37.8019 36.0335C37.6837 36.1329 37.5582 36.2236 37.4264 36.3048C36.9136 36.6229 36.3189 36.7928 35.698 36.7928H31.4288C30.9369 36.7928 30.5376 36.3997 30.5376 35.9139C30.5376 35.4276 30.9375 35.035 31.4288 35.035H35.9945C36.6653 35.035 37.2024 34.4842 37.1745 33.8215C37.1483 33.1928 36.6041 32.7053 35.9659 32.7053H32.4906C32.2553 32.4598 31.9975 32.2348 31.7212 32.0338C30.7711 31.343 29.597 30.9346 28.3261 30.9346C26.0664 30.9346 23.8181 32.3385 22.8858 34.2124L26.5317 40.4391H33.3706C34.7134 40.4391 36.0361 40.1005 37.2 39.4401C37.6035 39.2116 38.0354 38.9368 38.5036 38.6052C40.4656 37.2153 44.4769 34.3278 44.4798 34.326C45.0407 33.9288 45.1679 33.1577 44.7638 32.6051Z" fill="#B50F0F"/>
</svg>
