<svg width="60" height="60" viewBox="0 0 60 60" fill="none" xmlns="http://www.w3.org/2000/svg">
<path opacity="0.3" d="M37 0C49.7025 0 60 10.2975 60 23V37C60 49.7025 49.7025 60 37 60H23C10.2975 60 0 49.7025 0 37V23C0 10.2975 10.2975 0 23 0H37Z" fill="#FF9066"/>
<path d="M29.9956 27.7519C29.4009 27.7519 28.9077 27.2587 28.9077 26.664V21.8339C28.9077 21.2393 29.4009 20.7461 29.9956 20.7461C30.5903 20.7461 31.0834 21.2393 31.0834 21.8339V26.664C31.0834 27.2732 30.5903 27.7519 29.9956 27.7519Z" fill="#FF9871"/>
<path d="M30.025 42.0097C26.2828 42.0097 22.5551 41.4151 19.0014 40.2257C17.6815 39.7905 16.6807 38.8477 16.2455 37.6583C15.8104 36.4689 15.9554 35.1055 16.6662 33.9161L18.5083 30.8411C18.9144 30.1594 19.277 28.883 19.277 28.0852V25.0392C19.277 19.1068 24.0926 14.2913 30.025 14.2913C35.9574 14.2913 40.773 19.1068 40.773 25.0392V28.0852C40.773 28.8685 41.1356 30.1594 41.5417 30.8411L43.3838 33.9161C44.0655 35.0475 44.1816 36.3964 43.7319 37.6293C43.2823 38.8622 42.296 39.805 41.0486 40.2257C37.4949 41.4296 33.7672 42.0097 30.025 42.0097ZM30.025 16.4815C25.2965 16.4815 21.4527 20.3252 21.4527 25.0537V28.0997C21.4527 29.2746 20.9886 30.9717 20.3794 31.9725L18.5373 35.062C18.1602 35.6857 18.0731 36.3529 18.2907 36.9331C18.5083 37.5133 19.0014 37.9484 19.6977 38.1805C26.3698 40.3997 33.7092 40.3997 40.3814 38.1805C41.0051 37.9774 41.4837 37.5133 41.7013 36.9041C41.9334 36.2949 41.8608 35.6277 41.5272 35.062L39.6851 31.987C39.0759 30.9862 38.6118 29.2891 38.6118 28.1142V25.0683C38.5973 20.3252 34.7535 16.4815 30.025 16.4815Z" fill="#FF9871"/>
<path d="M29.997 45.7086C28.445 45.7086 26.922 45.0704 25.8197 43.968C24.7173 42.8656 24.0791 41.3427 24.0791 39.7906H26.2548C26.2548 40.777 26.6609 41.7343 27.3572 42.4305C28.0534 43.1267 29.0107 43.5329 29.997 43.5329C32.0567 43.5329 33.7392 41.8503 33.7392 39.7906H35.9149C35.9149 43.0542 33.2606 45.7086 29.997 45.7086Z" fill="#FF9871"/>
</svg>
