<svg width="60" height="60" viewBox="0 0 60 60" fill="none" xmlns="http://www.w3.org/2000/svg">
<rect width="60" height="60" rx="23" fill="#F0F9FF"/>
<path d="M21.9238 21.9237H15.2191C14.5469 21.9237 14 22.4706 14 23.1428V45.0856C14 45.7577 14.5469 46.3046 15.2191 46.3046H21.9238C22.596 46.3046 23.1429 45.7577 23.1429 45.0856V23.1428C23.143 22.4705 22.5961 21.9237 21.9238 21.9237ZM21.9238 45.0856H15.2191V23.1427L21.9239 23.1428L21.9238 45.0856ZM31.6763 45.0856H26.1906V29.238H33.5049V33.1999C33.5049 33.3615 33.5691 33.5166 33.6835 33.6309C33.7978 33.7452 33.9528 33.8094 34.1145 33.8094C34.2761 33.8094 34.4311 33.7452 34.5455 33.6309C34.6598 33.5166 34.724 33.3615 34.724 33.1999V29.238C34.724 28.5658 34.1771 28.0189 33.5049 28.0189H26.1906C25.5184 28.0189 24.9716 28.5658 24.9716 29.238V45.0856C24.9716 45.7577 25.5184 46.3046 26.1906 46.3046H31.6763C31.838 46.3046 31.993 46.2404 32.1073 46.1261C32.2217 46.0118 32.2859 45.8567 32.2859 45.6951C32.2859 45.5334 32.2217 45.3784 32.1073 45.2641C31.993 45.1498 31.838 45.0856 31.6763 45.0856Z" fill="#38BDF8"/>
<path d="M45.9536 40.5857C45.9075 40.4743 45.8294 40.3791 45.7291 40.3122C45.6289 40.2452 45.511 40.2095 45.3905 40.2095H41.7333V35.638C41.7333 35.4764 41.6691 35.3214 41.5548 35.207C41.4405 35.0927 41.2854 35.0285 41.1238 35.0285H34.419C34.2573 35.0285 34.1023 35.0927 33.988 35.207C33.8737 35.3214 33.8095 35.4764 33.8095 35.638V40.2095H30.1523C30.0317 40.2094 29.9139 40.2452 29.8136 40.3121C29.7134 40.3791 29.6352 40.4743 29.5891 40.5857C29.5429 40.697 29.5309 40.8196 29.5544 40.9379C29.5779 41.0561 29.636 41.1647 29.7213 41.2499L37.3404 48.869C37.4547 48.9833 37.6097 49.0475 37.7714 49.0475C37.933 49.0475 38.0881 48.9833 38.2024 48.869L45.8215 41.2499C45.9067 41.1647 45.9648 41.0561 45.9883 40.9379C46.0118 40.8196 45.9997 40.6971 45.9536 40.5857ZM37.7714 47.576L31.6238 41.4285H34.419C34.5806 41.4285 34.7357 41.3643 34.85 41.25C34.9643 41.1357 35.0285 40.9806 35.0285 40.819V36.2476H40.5143V40.819C40.5143 40.9806 40.5785 41.1357 40.6929 41.25C40.8072 41.3643 40.9622 41.4285 41.1239 41.4285H43.919L37.7714 47.576ZM18.2665 17.6571C19.2774 17.6571 20.1845 17.2067 20.7997 16.4968L26.6701 19.9428C26.5543 20.2865 26.4952 20.6467 26.4952 21.0094C26.4952 22.8579 27.9991 24.3617 29.8476 24.3617C30.8301 24.3617 31.7152 23.9369 32.3289 23.2613L37.9719 26.5724C37.839 26.9383 37.7712 27.3247 37.7715 27.7141C37.7715 29.5626 39.2753 31.0665 41.1239 31.0665C42.9724 31.0665 44.4762 29.5626 44.4762 27.7141C44.4762 25.8656 42.9723 24.3618 41.1239 24.3618C40.113 24.3618 39.2058 24.8122 38.5907 25.5221L32.971 22.2247C33.1224 21.8374 33.2001 21.4252 33.1999 21.0094C33.1999 19.1609 31.6961 17.6571 29.8475 17.6571C28.8082 17.6571 27.878 18.1324 27.2626 18.8772L21.4184 15.4465C21.5514 15.0805 21.6193 14.694 21.6189 14.3046C21.6189 12.4562 20.115 10.9524 18.2665 10.9524C16.4179 10.9524 14.9141 12.4563 14.9141 14.3047C14.9141 16.1531 16.418 17.6571 18.2665 17.6571ZM41.1238 25.5809C42.3001 25.5809 43.2571 26.5379 43.2571 27.7143C43.2571 28.8906 42.3001 29.8476 41.1238 29.8476C39.9474 29.8476 38.9904 28.8906 38.9904 27.7143C38.9904 26.5681 39.9704 25.5809 41.1238 25.5809ZM29.8475 18.8762C31.0239 18.8762 31.9809 19.8332 31.9809 21.0095C31.9809 22.1858 31.0239 23.1428 29.8475 23.1428C28.6712 23.1428 27.7142 22.1858 27.7142 21.0095C27.7141 19.8332 28.6712 18.8762 29.8475 18.8762ZM18.2665 12.1714C19.4429 12.1714 20.3999 13.1284 20.3999 14.3047C20.3999 15.4466 19.4142 16.4381 18.2665 16.4381C17.0902 16.4381 16.1332 15.4811 16.1332 14.3048C16.1331 13.1284 17.0902 12.1714 18.2665 12.1714Z" fill="#38BDF8"/>
</svg>
